<svg width="1080" height="1080" xmlns="http://www.w3.org/2000/svg" xml:space="preserve" version="1.1">
 <desc>Created with Fabric.js 5.2.4</desc>

 <g>
  <title>Layer 1</title>
  <rect id="svg_1" fill="transparent" height="100%" width="100%" y="0" x="0"/>
  <g id="f712cf3b-f77c-43c0-952f-c249b36cd7ad" transform="matrix(1 0 0 1 540 540)">
   <rect id="svg_2" fill-rule=" nonzero" fill=" rgb(255,255,255)" stroke-miterlimit="4" stroke-linejoin=" miter" stroke-dashoffset="0" stroke-linecap=" butt" stroke-dasharray=" none" stroke=" none" height="1080" width="1080" y="-540" x="-541.69492" vector-effect="non-scaling-stroke"/>
  </g>
  <g id="3401a221-ed50-4fd9-9725-9266e503285a" transform="matrix(0 0 0 0 0 0)"/>
  <g id="a2beaa14-644c-4b37-a009-49b53c7eb045" transform="matrix(0.95 0 0 0.95 512.99 505.43)">
   <text id="svg_3" fill-rule=" nonzero" fill="#ffffff" stroke-miterlimit="4" stroke-linejoin=" miter" stroke-dashoffset="0" stroke-linecap=" butt" stroke-dasharray=" none" stroke=" none" font-weight="700" font-style="normal" font-size="191" font-family="Alegreya" xml:space="preserve">
    <tspan fill="#ffffff" id="svg_4" y="-47.91" x="-490.87">FESIVAL OF</tspan>
    <tspan fill="#ffffff" id="svg_5" y="167.92" x="-347.33">STONES</tspan>
   </text>
  </g>
  <g id="svg_6" transform="matrix(2.36 0 0 2.36 747.54 871.86)">
   <g id="svg_7">
    <g id="svg_8" transform="matrix(1 0 0 1 -106.58 -29.61)">
     <path id="svg_9" fill-rule=" nonzero" fill="#ffffff" stroke-miterlimit="4" stroke-linejoin=" miter" stroke-dashoffset="0" stroke-dasharray=" none" stroke=" none" stroke-linecap=" butt" d="m29.597,-13.39l0,11.882c0.0017,0.6744 -0.1298,1.3425 -0.3871,1.966c-0.2573,0.6234 -0.6353,1.1898 -1.1122,1.6667c-0.4769,0.4769 -1.0433,0.8548 -1.6667,1.1121c-0.6234,0.2573 -1.2915,0.3889 -1.966,0.3872l-48.98,0c-0.6744,0.0017 -1.3425,-0.1299 -1.9659,-0.3872c-0.6234,-0.2573 -1.1899,-0.6352 -1.6668,-1.1121c-0.4769,-0.4769 -0.8548,-1.0433 -1.1121,-1.6667c-0.25731,-0.6235 -0.38888,-1.2916 -0.38717,-1.966l0,-11.882l-9.707,0l0,11.882c0.00872,3.9477 1.58081,7.7313 4.37227,10.5227c2.79147,2.7915 6.575,4.3636 10.5227,4.3723l48.924,0c3.9476,-0.009 7.7309,-1.5812 10.5221,-4.3726c2.7913,-2.7915 4.3632,-6.5749 4.3719,-10.5224l0,-11.882l-9.762,0z" vector-effect="non-scaling-stroke"/>
    </g>
    <g id="svg_10" transform="matrix(1 0 0 1 -106.64 13.46)">
     <path id="svg_11" fill-rule=" nonzero" fill="#ffffff" stroke-miterlimit="4" stroke-linejoin=" miter" stroke-dashoffset="0" stroke-dasharray=" none" stroke=" none" stroke-linecap=" butt" d="m21.892,-20.813l-43.791,0c-2.2934,-0.0013 -4.5645,0.4494 -6.6836,1.3265c-2.11905,0.877 -4.04446,2.1631 -5.66612,3.7848c-1.62167,1.6216 -2.90778,3.5471 -3.78481,5.6661c-0.87704,2.1191 -1.32778,4.3902 -1.32647,6.6836l0,6.694c-0.00131,2.2934 0.44943,4.5645 1.32647,6.6836c0.87703,2.1191 2.16314,4.0445 3.78481,5.6661c1.62166,1.6217 3.54707,2.9078 5.66612,3.7848c2.1191,0.8771 4.3902,1.3278 6.6836,1.3265l43.791,0c2.2934,0.0013 4.5645,-0.4494 6.6836,-1.3265c2.1191,-0.877 4.0445,-2.1631 5.6661,-3.7848c1.6217,-1.6216 2.9078,-3.547 3.7848,-5.6661c0.8771,-2.1191 1.3278,-4.3902 1.3265,-6.6836l0,-6.694c0.0013,-2.2934 -0.4494,-4.5645 -1.3265,-6.6836c-0.877,-2.119 -2.1631,-4.0445 -3.7848,-5.6661c-1.6216,-1.6217 -3.547,-2.9078 -5.6661,-3.7848c-2.1191,-0.8771 -4.3902,-1.3278 -6.6836,-1.3265zm7.754,17.461l0,6.694c-0.0037,2.041 -0.8161,3.9974 -2.2594,5.4406c-1.4432,1.4433 -3.3996,2.2557 -5.4406,2.2594l-43.789,0c-2.041,-0.0037 -3.9974,-0.8161 -5.4406,-2.2594c-1.4433,-1.4432 -2.2557,-3.3996 -2.2594,-5.4406l0,-6.694c0.0037,-2.041 0.8161,-3.9974 2.2594,-5.4406c1.4432,-1.4433 3.3996,-2.2557 5.4406,-2.2594l43.791,0c1.0133,-0.0076 2.018,0.1864 2.9556,0.5707c0.9376,0.3843 1.7895,0.9511 2.506,1.6677c0.7166,0.7165 1.2834,1.5684 1.6677,2.506c0.3843,0.9376 0.5783,1.9423 0.5707,2.9556" vector-effect="non-scaling-stroke"/>
    </g>
   </g>
  </g>
  <g id="e59227db-ada6-4777-9fc1-9f039bd141e4" transform="matrix(0.98 0 0 1.06 840.93 808.49)">
   <text id="svg_12" fill-rule=" nonzero" fill=" rgb(0,0,0)" stroke-miterlimit="4" stroke-linejoin=" miter" stroke-dashoffset="0" stroke-linecap=" butt" stroke-dasharray=" none" stroke=" none" font-weight="400" font-style="normal" font-size="40" font-family="Lato" xml:space="preserve"/>
  </g>
  <g id="380ab682-71d6-448c-b6ed-c23b96065fba" transform="matrix(0.92 0 0 0.92 518.92 207.51)">
   <text id="svg_13" fill-rule=" nonzero" fill="#ffffff" stroke-miterlimit="4" stroke-linejoin=" miter" stroke-dashoffset="0" stroke-linecap=" butt" stroke-dasharray=" none" stroke=" none" font-weight="700" font-style="normal" font-size="80" font-family="Alegreya" xml:space="preserve">
    <tspan id="svg_14" fill="#ffffff" font-weight="900" font-style=" normal" font-size=" 59px" font-family=" 'Raleway'" y="18.53" x="-373.23">HAUSMESSE ITALIEN 2025</tspan>
   </text>
  </g>
  <g id="svg_15" transform="matrix(1.1 0 0 1.1 765.5 878.14)">
   <text id="svg_16" fill-rule=" nonzero" fill="#ffffff" stroke-miterlimit="4" stroke-linejoin=" miter" stroke-dashoffset="0" stroke-linecap=" butt" stroke-dasharray=" none" stroke=" none" font-weight="800" font-style="normal" font-size="127" font-family="Alegreya" xml:space="preserve">
    <tspan id="svg_17" fill="#ffffff" font-weight="400" font-style=" normal" font-size=" 40px" font-family=" 'Lato'" y="-12.29" x="-56.54">Ulisse</tspan>
    <tspan id="svg_18" fill="#ffffff" font-weight="400" font-style=" normal" font-size=" 40px" font-family=" 'Lato'" y="37.43" x="-86.8">Orlandini</tspan>
   </text>
  </g>
 </g>
</svg>