<?xml version="1.0" encoding="UTF-8" standalone="no" ?>
<!DOCTYPE svg PUBLIC "-//W3C//DTD SVG 1.1//EN" "http://www.w3.org/Graphics/SVG/1.1/DTD/svg11.dtd">
<svg xmlns="http://www.w3.org/2000/svg" xmlns:xlink="http://www.w3.org/1999/xlink" version="1.1" width="1080" height="1080" viewBox="0 0 1080 1080" xml:space="preserve">
<desc>Created with Fabric.js 5.2.4</desc>
<defs>
</defs>
<rect x="0" y="0" width="100%" height="100%" fill="transparent"></rect>
<g transform="matrix(1 0 0 1 540 540)" id="f712cf3b-f77c-43c0-952f-c249b36cd7ad"  >
<rect style="stroke: none; stroke-width: 1; stroke-dasharray: none; stroke-linecap: butt; stroke-dashoffset: 0; stroke-linejoin: miter; stroke-miterlimit: 4; fill: rgb(255,255,255); fill-rule: nonzero; opacity: 1; visibility: hidden;" vector-effect="non-scaling-stroke"  x="-540" y="-540" rx="0" ry="0" width="1080" height="1080" />
</g>
<g transform="matrix(0 0 0 0 0 0)" id="3401a221-ed50-4fd9-9725-9266e503285a"  >
</g>
<g transform="matrix(0.95 0 0 0.95 512.99 505.43)" style="" id="a2beaa14-644c-4b37-a009-49b53c7eb045"  >
		<text xml:space="preserve" font-family="Alegreya" font-size="191" font-style="normal" font-weight="700" style="stroke: none; stroke-width: 1; stroke-dasharray: none; stroke-linecap: butt; stroke-dashoffset: 0; stroke-linejoin: miter; stroke-miterlimit: 4; fill: rgb(0,0,0); fill-rule: nonzero; opacity: 1; white-space: pre;" ><tspan x="-490.87" y="-47.91" >FESIVAL OF</tspan><tspan x="-347.33" y="167.92" >STONES</tspan></text>
</g>
<g transform="matrix(2.36 0 0 2.36 747.54 871.86)"  >
<g style=""   >
		<g transform="matrix(1 0 0 1 -106.58 -29.61)"  >
<path style="stroke: none; stroke-width: 1; stroke-dasharray: none; stroke-linecap: butt; stroke-dashoffset: 0; stroke-linejoin: miter; stroke-miterlimit: 4; fill: rgb(0,0,0); fill-rule: nonzero; opacity: 1;" vector-effect="non-scaling-stroke"  transform=" translate(-39.41, -13.39)" d="M 69.007 0 L 69.007 11.882 C 69.0087 12.5564 68.8772 13.2245 68.6199 13.848 C 68.3626 14.4714 67.9846 15.0378 67.5077 15.5147 C 67.0308 15.9916 66.4644 16.3695 65.841 16.6268 C 65.2176 16.8841 64.5495 17.0157 63.875 17.014 L 14.895 17.014 C 14.2206 17.0157 13.5525 16.8841 12.9291 16.6268 C 12.3057 16.3695 11.7392 15.9916 11.2623 15.5147 C 10.7854 15.0378 10.4075 14.4714 10.1502 13.848 C 9.89289 13.2245 9.76132 12.5564 9.76303 11.882 L 9.76303 0 L 0.0560303 0 L 0.0560303 11.882 C 0.0647475 15.8297 1.63684 19.6133 4.4283 22.4047 C 7.21977 25.1962 11.0033 26.7683 14.951 26.777 L 63.875 26.777 C 67.8226 26.768 71.6059 25.1958 74.3971 22.4044 C 77.1884 19.6129 78.7603 15.8295 78.769 11.882 L 78.769 0 L 69.007 0 Z" stroke-linecap="round" />
</g>
		<g transform="matrix(1 0 0 1 -106.64 13.46)"  >
<path style="stroke: none; stroke-width: 1; stroke-dasharray: none; stroke-linecap: butt; stroke-dashoffset: 0; stroke-linejoin: miter; stroke-miterlimit: 4; fill: rgb(0,0,0); fill-rule: nonzero; opacity: 1;" vector-effect="non-scaling-stroke"  transform=" translate(-39.36, -56.46)" d="M 61.252 35.647 L 17.461 35.647 C 15.1676 35.6457 12.8965 36.0964 10.7774 36.9735 C 8.65835 37.8505 6.73294 39.1366 5.11128 40.7583 C 3.48961 42.3799 2.2035 44.3054 1.32647 46.4244 C 0.449433 48.5435 -0.00131169 50.8146 0.00000286707 53.108 L 0.00000286707 59.802 C -0.00131169 62.0954 0.449433 64.3665 1.32647 66.4856 C 2.2035 68.6047 3.48961 70.5301 5.11128 72.1517 C 6.73294 73.7734 8.65835 75.0595 10.7774 75.9365 C 12.8965 76.8136 15.1676 77.2643 17.461 77.263 L 61.252 77.263 C 63.5454 77.2643 65.8165 76.8136 67.9356 75.9365 C 70.0547 75.0595 71.9801 73.7734 73.6017 72.1517 C 75.2234 70.5301 76.5095 68.6047 77.3865 66.4856 C 78.2636 64.3665 78.7143 62.0954 78.713 59.802 L 78.713 53.108 C 78.7143 50.8146 78.2636 48.5435 77.3865 46.4244 C 76.5095 44.3054 75.2234 42.3799 73.6017 40.7583 C 71.9801 39.1366 70.0547 37.8505 67.9356 36.9735 C 65.8165 36.0964 63.5454 35.6457 61.252 35.647 Z M 69.006 53.108 L 69.006 59.802 C 69.0023 61.843 68.1899 63.7994 66.7466 65.2426 C 65.3034 66.6859 63.347 67.4983 61.306 67.502 L 17.517 67.502 C 15.476 67.4983 13.5196 66.6859 12.0764 65.2426 C 10.6331 63.7994 9.8207 61.843 9.817 59.802 L 9.817 53.108 C 9.8207 51.067 10.6331 49.1106 12.0764 47.6674 C 13.5196 46.2241 15.476 45.4117 17.517 45.408 L 61.308 45.408 C 62.3213 45.4004 63.326 45.5944 64.2636 45.9787 C 65.2012 46.363 66.0531 46.9298 66.7696 47.6464 C 67.4862 48.3629 68.053 49.2148 68.4373 50.1524 C 68.8216 51.09 69.0156 52.0947 69.008 53.108" stroke-linecap="round" />
</g>
</g>
</g>
<g transform="matrix(0.98 0 0 1.06 840.93 808.49)" style="" id="e59227db-ada6-4777-9fc1-9f039bd141e4"  >
		<text xml:space="preserve" font-family="Lato" font-size="40" font-style="normal" font-weight="400" style="stroke: none; stroke-width: 1; stroke-dasharray: none; stroke-linecap: butt; stroke-dashoffset: 0; stroke-linejoin: miter; stroke-miterlimit: 4; fill: rgb(0,0,0); fill-rule: nonzero; opacity: 1; white-space: pre;" ></text>
</g>
<g transform="matrix(0.92 0 0 0.92 518.92 207.51)" style="" id="380ab682-71d6-448c-b6ed-c23b96065fba"  >
		<text xml:space="preserve" font-family="Alegreya" font-size="80" font-style="normal" font-weight="700" style="stroke: none; stroke-width: 1; stroke-dasharray: none; stroke-linecap: butt; stroke-dashoffset: 0; stroke-linejoin: miter; stroke-miterlimit: 4; fill: rgb(0,0,0); fill-rule: nonzero; opacity: 1; white-space: pre;" ><tspan x="-373.23" y="18.53" style="stroke-width: 1; font-family: 'Raleway'; font-size: 59px; font-style: normal; font-weight: 900; fill: rgb(0,0,0); ">HAUSMESSE ITALIEN 2025</tspan></text>
</g>
<g transform="matrix(1.1 0 0 1.1 765.5 878.14)" style=""  >
		<text xml:space="preserve" font-family="Alegreya" font-size="127" font-style="normal" font-weight="800" style="stroke: none; stroke-width: 1; stroke-dasharray: none; stroke-linecap: butt; stroke-dashoffset: 0; stroke-linejoin: miter; stroke-miterlimit: 4; fill: rgb(0,0,0); fill-rule: nonzero; opacity: 1; white-space: pre;" ><tspan x="-56.54" y="-12.29" style="stroke-width: 1; font-family: 'Lato'; font-size: 40px; font-style: normal; font-weight: 400; fill: rgb(0,0,0); white-space: pre; ">Ulisse </tspan><tspan x="-86.8" y="37.43" style="stroke-width: 1; font-family: 'Lato'; font-size: 40px; font-style: normal; font-weight: 400; fill: rgb(0,0,0); white-space: pre; ">Orlandini </tspan></text>
</g>
</svg>